<?xml version="1.0" encoding="UTF-8"?>
<svg width="58px" height="64px" viewBox="0 0 58 64" version="1.1" xmlns="http://www.w3.org/2000/svg" xmlns:xlink="http://www.w3.org/1999/xlink">
    <title>noun_House_3576474</title>
    <g id="Page-1" stroke="none" stroke-width="1" fill="none " fill-rule="evenodd">
        <g id="Home-Buying" transform="translate(-1232.000000, -542.000000)" fill="#84ADAE " fill-rule="nonzero">
            <g id="Rectangle-Copy-26" transform="translate(1146.000000, 170.000000)">
                <g id="Group-8" transform="translate(42.000000, 345.000000)">
                    <g id="noun_House_3576474" transform="translate(44.000000, 27.000000)">
                        <path d="M1.71,62.31 C1.27874037,62.3569842 0.952059763,62.7211885 0.952059763,63.155 C0.952059763,63.5888115 1.27874037,63.9530158 1.71,64 L56.29,64 C56.7212596,63.9530158 57.0479402,63.5888115 57.0479402,63.155 C57.0479402,62.7211885 56.7212596,62.3569842 56.29,62.31 L47.41,62.31 L47.41,37.51 L48.22,37.94 C48.4305312,38.0603936 48.6843111,38.0787835 48.91,37.99 C49.1407655,37.9083839 49.3237391,37.7290698 49.41,37.5 L51.41,32.23 C51.5436871,31.8486064 51.3832347,31.4263633 51.03,31.23 L47.57,29.35 L47.57,18.59 C47.57,18.364566 47.4804467,18.1483652 47.3210408,17.9889592 C47.1616348,17.8295533 46.945434,17.74 46.72,17.74 L40.17,17.74 C39.700558,17.74 39.32,18.120558 39.32,18.59 L39.32,24.84 L28.79,19.13 C28.5034572,19.0029228 28.1765428,19.0029228 27.89,19.13 L5.64,31.19 C5.29001417,31.3891603 5.13059939,31.8086729 5.26,32.19 L7.26,37.46 C7.34626087,37.6890698 7.52923449,37.8683839 7.76,37.95 C7.98903747,38.0390669 8.24594704,38.0207162 8.46,37.9 L9.26,37.47 L9.26,62.27 L1.71,62.31 Z M28.15,62.31 L18.15,62.31 L18.15,44 L28.15,44 L28.15,62.31 Z M45.72,62.31 L29.85,62.31 L29.85,43.12 C29.85,42.650558 29.469442,42.27 29,42.27 L17.25,42.27 C16.7844679,42.2754772 16.4099678,42.6544356 16.41,43.12 L16.41,62.31 L11,62.31 L11,36.59 L28.38,27.17 L28.46,27.17 L45.76,36.54 L45.72,62.31 Z M41,19.44 L45.87,19.44 L45.87,28.44 L41,25.76 L41,19.44 Z M8.51,36 L7.1,32.32 L28.34,20.81 L28.43,20.86 L49.58,32.32 L48.17,36 L28.74,25.46 C28.4919388,25.3191249 28.1880612,25.3191249 27.94,25.46 L8.51,36 Z" id="Shape"></path>
                        <path d="M33.48,50.65 L41.38,50.65 C41.8455321,50.6445228 42.22,50.2655644 42.22,49.8 L42.22,43.12 C42.22,42.6544356 41.8455321,42.2754772 41.38,42.27 L33.48,42.27 C33.0144679,42.2754772 32.64,42.6544356 32.64,43.12 L32.64,49.8 C32.64,50.2655644 33.0144679,50.6445228 33.48,50.65 Z M34.33,44 L40.53,44 L40.53,49 L34.33,49 L34.33,44 Z" id="Shape"></path>
                        <path d="M39,11.29 L39.08,11.34 L39.08,11.43 C39.1021744,12.4361641 39.4773839,13.4025056 40.14,14.16 C40.2836355,14.3289239 40.4888908,14.433352 40.71,14.45 C40.9361246,14.4633834 41.1585528,14.3880448 41.33,14.24 C41.4969717,14.0906297 41.6006868,13.8831996 41.62,13.66 C41.6333834,13.4338754 41.5580448,13.2114472 41.41,13.04 C40.9955923,12.559045 40.7683798,11.9448612 40.77,11.31 C40.77,11.23 40.77,11.16 40.77,11.05 L40.77,10.97 C40.8137841,10.6070529 40.6259965,10.2554507 40.3,10.09 C39.24,9.58 38.62,8.84 38.62,8.09 C38.62,7.34 39.28,6.58 40.39,6.09 C40.7707953,5.91755877 40.966848,5.49135713 40.85,5.09 C40.7765307,4.84993898 40.7361583,4.60097632 40.73,4.35 C40.73,2.89196826 41.9119683,1.71 43.37,1.71 C44.8280317,1.71 46.01,2.89196826 46.01,4.35 C46.0031112,4.60090791 45.9627547,4.84977305 45.89,5.09 C45.7776587,5.4910119 45.9723994,5.91436138 46.35,6.09 C47.46,6.61 48.12,7.36 48.12,8.09 C48.12,8.82 47.49,9.56 46.44,10.09 C46.1060323,10.277114 45.9228323,10.6514793 45.98,11.03 L45.98,11.03 C45.9849532,11.1099233 45.9849532,11.1900767 45.98,11.27 C45.9831309,11.9907619 45.6903171,12.6812239 45.17,13.18 C44.8448225,13.5139122 44.8448225,14.0460878 45.17,14.38 C45.5079786,14.6950146 46.0320214,14.6950146 46.37,14.38 C47.1888824,13.592609 47.6663884,12.5155277 47.7,11.38 L47.7,11.28 L47.78,11.23 C48.959082,10.6000094 49.7190606,9.39544335 49.78,8.06 C49.720046,6.71914804 48.9607894,5.50813381 47.78,4.87 L47.68,4.81 L47.68,4.75 C47.6895737,4.613501 47.6895737,4.476499 47.68,4.34 C47.68,1.94308419 45.7369158,0 43.34,0 C40.9430842,0 39,1.94308419 39,4.34 C38.9904263,4.476499 38.9904263,4.613501 39,4.75 L39,4.86 L38.9,4.92 C37.7192106,5.55813381 36.959954,6.76914804 36.9,8.11 C36.9815225,9.46908014 37.7820883,10.6813656 39,11.29 Z" id="Path"></path>
                    </g>
                </g>
            </g>
        </g>
    </g>
</svg>