<?xml version="1.0" encoding="UTF-8"?>
<svg width="64px" height="54px" viewBox="0 0 64 54" version="1.1" xmlns="http://www.w3.org/2000/svg" xmlns:xlink="http://www.w3.org/1999/xlink">
    <title>noun_condo_3414224</title>
    <g id="Page-1" stroke="none" stroke-width="1" fill="none" fill-rule="evenodd">
        <g id="Home-Buying" transform="translate(-1414.000000, -554.000000)" fill="#84ADAE" fill-rule="nonzero">
            <g id="Rectangle-Copy-26" transform="translate(1146.000000, 170.000000)">
                <g id="Group-4" transform="translate(220.000000, 345.000000)">
                    <g id="noun_condo_3414224" transform="translate(48.000000, 39.000000)">
                        <g id="Group" transform="translate(0.034565, 0.000000)">
                            <path d="M38.2165058,27.5025182 L39.8192868,27.5025182 C40.3681401,27.5025182 40.8149785,27.0568959 40.8149785,26.5080426 C40.8149785,25.9591894 40.3681401,25.5135671 39.8192868,25.5135671 L38.2165058,25.5135671 C37.6676526,25.5135671 37.2208142,25.9591894 37.2208142,26.5080426 C37.2208142,27.0568959 37.6676526,27.5025182 38.2165058,27.5025182 Z" id="Path"></path>
                            <path d="M38.2165058,32.4662482 L39.8192868,32.4662482 C40.3681401,32.4662482 40.8149785,32.0194098 40.8149785,31.4705566 C40.8149785,30.9217034 40.3681401,30.474865 39.8192868,30.474865 L38.2165058,30.474865 C37.6676526,30.474865 37.2208142,30.9217034 37.2208142,31.4705566 C37.2208142,32.0194098 37.6676526,32.4662482 38.2165058,32.4662482 Z" id="Path"></path>
                            <path d="M38.2165058,37.4301134 L39.8192868,37.4301134 C40.3681401,37.4301134 40.8149785,36.983275 40.8149785,36.4344218 C40.8149785,35.8855686 40.3681401,35.4387302 39.8192868,35.4387302 L38.2165058,35.4387302 C37.6676526,35.4387302 37.2208142,35.8855686 37.2208142,36.4344218 C37.2208142,36.983275 37.6676526,37.4301134 38.2165058,37.4301134 Z" id="Path"></path>
                            <path d="M38.2165058,42.3915465 L39.8192868,42.3915465 C40.3681401,42.3915465 40.8149785,41.9447081 40.8149785,41.3958549 C40.8149785,40.8470016 40.3681401,40.4001633 39.8192868,40.4001633 L38.2165058,40.4001633 C37.6676526,40.4001633 37.2208142,40.8470016 37.2208142,41.3958549 C37.2208142,41.9447081 37.6676526,42.3915465 38.2165058,42.3915465 Z" id="Path"></path>
                            <path d="M38.2165058,47.3554116 L39.8192868,47.3554116 C40.3681401,47.3554116 40.8149785,46.9085732 40.8149785,46.35972 C40.8149785,45.8108668 40.3681401,45.3640284 39.8192868,45.3640284 L38.2165058,45.3640284 C37.6676526,45.3640284 37.2208142,45.8108668 37.2208142,46.35972 C37.2208142,46.9085732 37.6676526,47.3554116 38.2165058,47.3554116 Z" id="Path"></path>
                            <path d="M44.236731,27.5025182 L45.839512,27.5025182 C46.3883653,27.5025182 46.8352037,27.0568959 46.8352037,26.5080426 C46.8352037,25.9591894 46.3883653,25.5135671 45.839512,25.5135671 L44.236731,25.5135671 C43.6878777,25.5135671 43.2410394,25.9591894 43.2410394,26.5080426 C43.2410394,27.0568959 43.6878777,27.5025182 44.236731,27.5025182 Z" id="Path"></path>
                            <path d="M44.236731,32.4662482 L45.839512,32.4662482 C46.3883653,32.4662482 46.8352037,32.0194098 46.8352037,31.4705566 C46.8352037,30.9217034 46.3883653,30.474865 45.839512,30.474865 L44.236731,30.474865 C43.6878777,30.474865 43.2410394,30.9217034 43.2410394,31.4705566 C43.2410394,32.0194098 43.6878777,32.4662482 44.236731,32.4662482 Z" id="Path"></path>
                            <path d="M44.236731,37.4301134 L45.839512,37.4301134 C46.3883653,37.4301134 46.8352037,36.983275 46.8352037,36.4344218 C46.8352037,35.8855686 46.3883653,35.4387302 45.839512,35.4387302 L44.236731,35.4387302 C43.6878777,35.4387302 43.2410394,35.8855686 43.2410394,36.4344218 C43.2410394,36.983275 43.6878777,37.4301134 44.236731,37.4301134 Z" id="Path"></path>
                            <path d="M44.236731,42.3915465 L45.839512,42.3915465 C46.3883653,42.3915465 46.8352037,41.9447081 46.8352037,41.3958549 C46.8352037,40.8470016 46.3883653,40.4001633 45.839512,40.4001633 L44.236731,40.4001633 C43.6878777,40.4001633 43.2410394,40.8470016 43.2410394,41.3958549 C43.2410394,41.9447081 43.6878777,42.3915465 44.236731,42.3915465 Z" id="Path"></path>
                            <path d="M44.236731,47.3554116 L45.839512,47.3554116 C46.3883653,47.3554116 46.8352037,46.9085732 46.8352037,46.35972 C46.8352037,45.8108668 46.3883653,45.3640284 45.839512,45.3640284 L44.236731,45.3640284 C43.6878777,45.3640284 43.2410394,45.8108668 43.2410394,46.35972 C43.2410394,46.9085732 43.6878777,47.3554116 44.236731,47.3554116 Z" id="Path"></path>
                            <path d="M25.4050666,9.78909831 L15.9085008,9.78909831 C15.3596476,9.78909831 14.9140253,10.2347206 14.9140253,10.7835738 L14.9140253,15.361269 C14.9140253,15.9101223 15.3596476,16.3557446 15.9085008,16.3557446 L25.4050666,16.3557446 C25.9539198,16.3557446 26.3995421,15.9101223 26.3995421,15.361269 L26.3995421,10.7835738 C26.3995421,10.2347206 25.9537847,9.78909831 25.4050666,9.78909831 Z M24.4105911,14.3667935 L16.9029764,14.3667935 L16.9029764,11.7780494 L24.4105911,11.7780494 L24.4105911,14.3667935 L24.4105911,14.3667935 Z" id="Shape"></path>
                            <path d="M25.4050666,20.3020289 L15.9085008,20.3020289 C15.3596476,20.3020289 14.9140253,20.7476512 14.9140253,21.2965044 L14.9140253,25.8754157 C14.9140253,26.4242689 15.3596476,26.8698912 15.9085008,26.8698912 L25.4050666,26.8698912 C25.9539198,26.8698912 26.3995421,26.4242689 26.3995421,25.8754157 L26.3995421,21.2965044 C26.3995421,20.7476512 25.9537847,20.3020289 25.4050666,20.3020289 Z M24.4105911,24.8809401 L16.9029764,24.8809401 L16.9029764,22.2909799 L24.4105911,22.2909799 L24.4105911,24.8809401 L24.4105911,24.8809401 Z" id="Shape"></path>
                            <path d="M25.4050666,30.8149594 L15.9085008,30.8149594 C15.3596476,30.8149594 14.9140253,31.2617978 14.9140253,31.8106511 L14.9140253,36.3883463 C14.9140253,36.9371995 15.3596476,37.3840379 15.9085008,37.3840379 L25.4050666,37.3840379 C25.9539198,37.3840379 26.3995421,36.9371995 26.3995421,36.3883463 L26.3995421,31.8106511 C26.3995421,31.2617978 25.9537847,30.8149594 25.4050666,30.8149594 Z M24.4105911,35.3926546 L16.9029764,35.3926546 L16.9029764,32.8063427 L24.4105911,32.8063427 L24.4105911,35.3926546 L24.4105911,35.3926546 Z" id="Shape"></path>
                            <path d="M25.4050666,41.32789 L15.9085008,41.32789 C15.3596476,41.32789 14.9140253,41.7747284 14.9140253,42.3235816 L14.9140253,46.903709 C14.9140253,47.4525622 15.3596476,47.8994006 15.9085008,47.8994006 L25.4050666,47.8994006 C25.9539198,47.8994006 26.3995421,47.4525622 26.3995421,46.903709 L26.3995421,42.3235816 C26.3995421,41.7747284 25.9537847,41.32789 25.4050666,41.32789 Z M24.4105911,45.9080174 L16.9029764,45.9080174 L16.9029764,43.3192732 L24.4105911,43.3192732 L24.4105911,45.9080174 L24.4105911,45.9080174 Z" id="Shape"></path>
                            <path d="M29.7556268,9.14674278 C29.2067736,9.14674278 28.7611513,9.59236511 28.7611513,10.1412183 L28.7611513,46.9035738 C28.7611513,47.4524271 29.2067736,47.8992654 29.7556268,47.8992654 C30.30448,47.8992654 30.7501023,47.4524271 30.7501023,46.9035738 L30.7501023,10.1412183 C30.7501023,9.59236511 30.30448,9.14674278 29.7556268,9.14674278 Z" id="Path"></path>
                            <path d="M62.7854562,43.8486693 L60.0630795,36.3009243 C59.7231202,35.363469 58.8633582,34.7588116 57.8676666,34.7588116 C57.8652345,34.7588116 57.8652345,34.7588116 57.8652345,34.7588116 C56.8695429,34.7588116 56.0074839,35.3659011 55.6722538,36.3009243 L52.949877,43.8486693 C52.614782,44.7763961 52.7531438,45.8108668 53.319022,46.6171217 C53.8849002,47.4233765 54.8124918,47.906697 55.7984549,47.906697 L56.8718399,47.906697 L56.8718399,51.6732731 L51.1940061,51.6732731 L51.1940061,29.6904995 C51.1940061,28.6158984 50.9609259,27.5485937 50.5189518,26.6026259 C47.9565559,21.1153099 42.4261369,18.7580245 38.5805162,17.7551716 L38.5805162,5.4130006 C38.5805162,4.86414739 38.1336778,4.41852506 37.5848246,4.41852506 L12.1090908,4.41852506 C11.5602376,4.41852506 11.1146153,4.86414739 11.1146153,5.4130006 L11.1146153,51.673138 L6.09251384,51.673138 L6.09251384,47.9065619 L7.16589885,47.9065619 C8.15186189,47.9065619 9.07958866,47.4232414 9.64533174,46.6169865 C10.212426,45.8107317 10.3507878,44.776261 10.0169089,43.8485342 L7.2945321,36.3007892 C6.95578887,35.3633338 6.09359479,34.7586765 5.09790319,34.7586765 C4.10099551,34.7586765 3.23893656,35.3633338 2.90005821,36.3007892 L0.178897501,43.8485342 C-0.154981445,44.776261 -0.0166196319,45.8107317 0.549258567,46.6169865 C1.11635284,47.4232414 2.04394449,47.9065619 3.02990753,47.9065619 L4.10329253,47.9065619 L4.10329253,51.673138 L2.63792743,51.673138 C2.08907422,51.673138 1.64345189,52.1199764 1.64345189,52.6688296 C1.64345189,53.2176828 2.08907422,53.6645212 2.63792743,53.6645212 L59.7837886,53.6645212 C60.3326418,53.6645212 60.7794802,53.2176828 60.7794802,52.6688296 C60.7794802,52.1199764 60.3326418,51.673138 59.7837886,51.673138 L58.8633582,51.673138 L58.8633582,47.9065619 L59.9343111,47.9065619 C60.9202741,47.9065619 61.8480009,47.4232414 62.4161761,46.6169865 C62.9821894,45.8108668 63.1205512,44.776261 62.7854562,43.8486693 Z M2.17771225,45.4733397 C1.98097905,45.1940488 1.93490349,44.8467931 2.05137603,44.5238587 L4.77253673,36.9761137 C4.84050157,36.7866769 4.98629493,36.7478978 5.09790319,36.7478978 C5.2084305,36.7478978 5.35408873,36.7868121 5.42205357,36.9761137 L8.14443035,44.5238587 C8.26103801,44.8467931 8.21482732,45.1917518 8.01809412,45.4733397 C7.82014485,45.7550627 7.50937124,45.9153138 7.16562861,45.9153138 L3.03017776,45.9153138 C2.68657025,45.9153138 2.37566153,45.7549276 2.17771225,45.4733397 Z M48.7172756,27.4441468 C49.0353457,28.1277136 49.2030283,28.9049179 49.2030283,29.6904995 L49.2030283,51.673138 L35.4285963,51.673138 L35.4285963,19.1473023 C38.2359629,19.5710353 45.8322156,21.2697509 48.7172756,27.4441468 Z M13.1035664,6.40747613 L36.5894033,6.40747613 L36.5894033,17.3140082 C35.4103552,17.1009256 34.6186933,17.0410679 34.4984374,17.0333662 C34.2361715,17.0163412 33.9556645,17.1110596 33.752851,17.2992803 C33.5524695,17.487501 33.438294,17.7497669 33.438294,18.0254095 L33.438294,51.6732731 L13.1035664,51.6732731 L13.1035664,6.40747613 Z M60.7867766,45.4733397 C60.5900434,45.7550627 60.2792698,45.9153138 59.9343111,45.9153138 L55.7987251,45.9153138 C55.4539015,45.9153138 55.145425,45.7550627 54.9486918,45.4733397 C54.7495264,45.1940488 54.7034508,44.8467931 54.8199234,44.5238587 L57.5423002,36.9761137 C57.6126971,36.7818127 57.8700988,36.7406014 57.8676666,36.7478978 C57.9575207,36.7478978 58.120204,36.7770835 58.1930331,36.9761137 L60.9154098,44.5238587 C61.0321526,44.8467931 60.9859419,45.1916166 60.7867766,45.4733397 Z" id="Shape"></path>
                            <path d="M61.3745441,6.85309846 C60.7212439,5.59270881 59.436668,4.86414739 58.1397962,4.9661622 C57.8507767,3.87088792 57.168426,3.00639683 56.1240916,2.43079006 C55.0531387,1.8395095 53.8777389,1.71438935 52.6877462,2.05434865 C51.0582116,0.12849813 48.4718996,-0.253888523 46.5825312,0.423597935 C45.5286033,0.798823283 44.6639771,1.43874667 44.0108121,2.32877525 C43.3915619,3.17637648 43.0661954,4.13558596 43.0370097,5.19072991 C42.5173422,5.36435777 42.0437503,5.63270403 41.6236654,5.99212045 C40.1859997,7.22575655 39.9844022,9.31307422 41.1695306,10.7446596 C42.0001068,11.7464315 43.129296,12.2563705 44.5257504,12.2575866 L53.7661306,12.2551544 L58.3511223,12.2575866 C59.2350705,12.2563705 60.036461,11.929788 60.6630076,11.3154021 C61.8625937,10.1448665 62.1491811,8.35143259 61.3745441,6.85309846 Z M59.2714175,9.89232919 C59.0115837,10.1485147 58.7177,10.2675545 58.348555,10.2687706 L53.7659955,10.2663385 L44.5256153,10.2687706 C43.729089,10.2675545 43.148618,10.0150172 42.7017796,9.47589256 C42.1991371,8.87001915 42.2914233,8.04065899 42.9179699,7.50275041 C43.2215822,7.24413272 43.5639737,7.08023343 43.9621692,6.99889182 C43.9816264,6.9952436 44.2098423,6.94187161 44.2268673,6.93700733 L44.3069928,6.91633413 C44.7951776,6.79486219 45.1132476,6.32991785 45.0550114,5.83200449 C44.9457001,4.93224734 45.1302726,4.16977106 45.6160253,3.50431019 C46.033678,2.93478378 46.5679384,2.54023642 47.2504242,2.2985086 C48.5958037,1.81397202 50.4851721,2.17338845 51.485728,3.77144037 C51.750426,4.1963895 52.2846864,4.35785665 52.7388212,4.15031393 C53.615473,3.75319931 54.4119993,3.75806359 55.1624499,4.1722032 C55.9249262,4.59350411 56.2892069,5.22734715 56.3062319,6.16966677 C56.3135284,6.47084693 56.5344479,6.73432889 56.7725275,6.91890139 C57.0129041,7.10347389 57.4015062,7.15319767 57.6953899,7.07793641 L58.0062987,6.99902693 C58.7299958,6.79621338 59.3346531,7.23453928 59.6066476,7.7663675 C59.9756575,8.4826331 59.84216,9.33617956 59.2714175,9.89232919 Z" id="Shape"></path>
                        </g>
                    </g>
                </g>
            </g>
        </g>
    </g>
</svg>