<?xml version="1.0" encoding="UTF-8"?>
<svg width="32px" height="36px" viewBox="0 0 32 36" version="1.1" xmlns="http://www.w3.org/2000/svg" xmlns:xlink="http://www.w3.org/1999/xlink">
    <title>noun_bulb_3354805</title>
    <g id="Page-1" stroke="none" stroke-width="1" fill="none" fill-rule="evenodd">
        <g id="Home-Buying" transform="translate(-1168.000000, -744.000000)" fill="#000000" fill-rule="nonzero">
            <g id="Rectangle-Copy-26" transform="translate(1146.000000, 170.000000)">
                <g id="Group" transform="translate(22.000000, 574.000000)">
                    <path d="M15.9830088,7.61061947 C20.6074336,7.61061947 24.3561062,11.36 24.3561062,15.9844248 C24.3561062,17.900177 23.7047788,19.7465487 22.500531,21.2368142 C21.9568142,21.9122124 21.5228319,22.5968142 21.1872566,23.3210619 C20.8516814,24.0460177 20.6102655,24.820531 20.4481416,25.6686726 L19.9702655,28.180531 C19.9023009,28.5458407 19.5823009,28.8 19.2240708,28.8 L12.7419469,28.8028319 C12.3504425,28.8028319 12.0261947,28.5054867 11.9851327,28.1238938 L11.5178761,25.6686726 C11.3557522,24.820531 11.1143363,24.0460177 10.7787611,23.3210619 C10.4431858,22.5968142 10.0092035,21.9122124 9.46548673,21.2368142 C8.26123894,19.7465487 7.6099115,17.900177 7.6099115,15.9844248 C7.6099115,11.36 11.3585841,7.61061947 15.9830088,7.61061947 L15.9830088,7.61061947 Z M15.9830088,9.13345133 C12.200354,9.13345133 9.13274336,12.2010619 9.13274336,15.9844248 C9.13274336,17.5582301 9.65876106,19.060531 10.6484956,20.2860177 C11.2715044,21.059115 11.7692035,21.8463717 12.1578761,22.6846018 C12.5451327,23.5221239 12.8240708,24.4127434 13.0102655,25.3904425 L13.3699115,27.28 L18.5961062,27.28 L18.9557522,25.3904425 C19.1419469,24.4127434 19.420885,23.5221239 19.8081416,22.6846018 C20.1968142,21.8463717 20.6945133,21.059115 21.3175221,20.2860177 C22.3072566,19.060531 22.8332743,17.5582301 22.8332743,15.9844248 C22.8332743,12.2010619 19.7656637,9.13345133 15.9830088,9.13345133 Z" id="Shape"></path>
                    <path d="M15.9830088,10.6548673 C16.4028319,10.6548673 16.7447788,10.9968142 16.7447788,11.4166372 C16.7447788,11.8364602 16.4028319,12.1776991 15.9830088,12.1776991 C13.8746903,12.1776991 12.1769912,13.8761062 12.1769912,15.9844248 C12.1769912,16.4042478 11.8350442,16.7454867 11.4152212,16.7454867 C10.9953982,16.7454867 10.6534513,16.4042478 10.6534513,15.9844248 C10.6534513,13.0463717 13.0449558,10.6548673 15.9830088,10.6548673 L15.9830088,10.6548673 Z" id="Path"></path>
                    <path d="M15.2212389,0.761769912 C15.2212389,0.341946903 15.5631858,0 15.9830088,0 C16.4028319,0 16.7447788,0.341946903 16.7447788,0.761769912 L16.7447788,4.56707965 C16.7447788,4.98690265 16.4028319,5.32814159 15.9830088,5.32814159 C15.5631858,5.32814159 15.2212389,4.98690265 15.2212389,4.56707965 L15.2212389,0.761769912 Z" id="Path"></path>
                    <path d="M26.2081416,4.68176991 C26.5047788,4.38513274 26.9883186,4.38513274 27.2849558,4.68176991 C27.5815929,4.97840708 27.5815929,5.4619469 27.2849558,5.75929204 L24.5946903,8.44955752 C24.2980531,8.74619469 23.8138053,8.74619469 23.5171681,8.44955752 C23.220531,8.15292035 23.220531,7.66938053 23.5171681,7.37274336 L26.2081416,4.68176991 L26.2081416,4.68176991 Z" id="Path"></path>
                    <path d="M31.2049558,15.2226549 C31.6247788,15.2226549 31.9660177,15.5646018 31.9660177,15.9844248 C31.9660177,16.4042478 31.6247788,16.7454867 31.2049558,16.7454867 L27.400354,16.7454867 C26.980531,16.7454867 26.6385841,16.4042478 26.6385841,15.9844248 C26.6385841,15.5646018 26.980531,15.2226549 27.400354,15.2226549 L31.2049558,15.2226549 Z" id="Path"></path>
                    <path d="M27.2849558,26.2095575 C27.5815929,26.5061947 27.5815929,26.9897345 27.2849558,27.2863717 C26.9883186,27.5830088 26.5047788,27.5830088 26.2081416,27.2863717 L23.5171681,24.5953982 C23.220531,24.2987611 23.220531,23.8152212 23.5171681,23.5185841 C23.8138053,23.2219469 24.2980531,23.2219469 24.5946903,23.5185841 L27.2849558,26.2095575 L27.2849558,26.2095575 Z" id="Path"></path>
                    <path d="M4.68106195,5.75929204 C4.38442478,5.4619469 4.38442478,4.97840708 4.68106195,4.68176991 C4.97769912,4.38513274 5.46123894,4.38513274 5.75787611,4.68176991 L8.44884956,7.37274336 C8.74548673,7.66938053 8.74548673,8.15292035 8.44884956,8.44955752 C8.15221239,8.74619469 7.6679646,8.74619469 7.37132743,8.44955752 L4.68106195,5.75929204 Z" id="Path"></path>
                    <path d="M0.761061947,16.7454867 C0.341238938,16.7454867 0,16.4042478 0,15.9844248 C0,15.5646018 0.341238938,15.2226549 0.761061947,15.2226549 L4.56566372,15.2226549 C4.98548673,15.2226549 5.32743363,15.5646018 5.32743363,15.9844248 C5.32743363,16.4042478 4.98548673,16.7454867 4.56566372,16.7454867 L0.761061947,16.7454867 Z" id="Path"></path>
                    <path d="M5.75787611,27.2863717 C5.46123894,27.5830088 4.97769912,27.5830088 4.68106195,27.2863717 C4.38442478,26.9897345 4.38442478,26.5061947 4.68106195,26.2095575 L7.37132743,23.5185841 C7.6679646,23.2219469 8.15221239,23.2219469 8.44884956,23.5185841 C8.74548673,23.8152212 8.74548673,24.2987611 8.44884956,24.5953982 L5.75787611,27.2863717 L5.75787611,27.2863717 Z" id="Path"></path>
                    <path d="M12.7419469,31.1313274 C12.3221239,31.1313274 11.980885,30.7893805 11.980885,30.3695575 C11.980885,29.9497345 12.3221239,29.6084956 12.7419469,29.6084956 L19.2240708,29.6084956 C19.6438938,29.6084956 19.9851327,29.9497345 19.9851327,30.3695575 C19.9851327,30.7893805 19.6438938,31.1313274 19.2240708,31.1313274 L12.7419469,31.1313274 L12.7419469,31.1313274 Z" id="Path"></path>
                    <path d="M12.7419469,33.5100885 C12.3221239,33.5100885 11.980885,33.1681416 11.980885,32.7483186 C11.980885,32.3284956 12.3221239,31.9872566 12.7419469,31.9872566 L19.2240708,31.9872566 C19.6438938,31.9872566 19.9851327,32.3284956 19.9851327,32.7483186 C19.9851327,33.1681416 19.6438938,33.5100885 19.2240708,33.5100885 L12.7419469,33.5100885 L12.7419469,33.5100885 Z" id="Path"></path>
                    <path d="M14.3115044,35.8888496 C13.8916814,35.8888496 13.5504425,35.5469027 13.5504425,35.1270796 C13.5504425,34.7072566 13.8916814,34.3660177 14.3115044,34.3660177 L17.6545133,34.3660177 C18.0743363,34.3660177 18.4155752,34.7072566 18.4155752,35.1270796 C18.4155752,35.5469027 18.0743363,35.8888496 17.6545133,35.8888496 L14.3115044,35.8888496 Z" id="Path"></path>
                </g>
            </g>
        </g>
    </g>
</svg>